<svg xmlns="http://www.w3.org/2000/svg" xmlns:xlink="http://www.w3.org/1999/xlink" x="0px" y="0px" width="48px" height="48px" viewBox="0 0 48 48"><g >
<!-- <path fill="#4a4a4a" d="M42,45H6c-0.6,0-1-0.4-1-1s0.4-1,1-1h36c0.6,0,1,0.4,1,1S42.6,45,42,45z"/> -->
<path fill="#4a4a4a" d="M17.2,19.4l-9.9,9.9c-1.2,1.2-1.4,3.1-0.6,4.6l-1.4,1.4c-0.4,0.4-0.4,1,0,1.4C5.5,36.9,5.7,37,6,37
s0.5-0.1,0.7-0.3l1.4-1.4c0.6,0.3,1.2,0.5,1.9,0.5c1,0,2-0.4,2.7-1.1l9.9-9.9L17.2,19.4z"/>
<path data-color="color-2" fill="#4a4a4a" d="M41.7,14.3l-2.4-2.4c1.9-2.6,1.7-6.3-0.6-8.6C37.5,2,35.8,1.3,34,1.3S30.5,2,29.3,3.3l-12,12
c-0.4,0.4-0.4,1,0,1.4l8,8c0.2,0.2,0.5,0.3,0.7,0.3s0.5-0.1,0.7-0.3L38,13.4l1.6,1.6l-7.3,7.3c-0.4,0.4-0.4,1,0,1.4
c0.2,0.2,0.5,0.3,0.7,0.3s0.5-0.1,0.7-0.3l8-8C42.1,15.3,42.1,14.7,41.7,14.3z"/>
</g></svg>
