<svg xmlns="http://www.w3.org/2000/svg" xmlns:xlink="http://www.w3.org/1999/xlink" x="0px" y="0px" width="48px" height="48px" viewBox="0 0 48 48"><g >
<path fill="#4a4a4a" d="M40.4,13.1c-2-1-4.1-1.4-6.3-1.4c-3.1,0-5.8,0.9-8.3,1.7c-1.8,0.6-3.4,1.1-4.7,1.1c-1,0-1.7-0.3-2.3-1
c-0.4-0.5-0.1-1.6,0.2-2.7c0.5-1.6,1.1-3.6-0.2-5.3c-0.8-1-2.1-1.6-3.7-1.6c-1.5,0-3.1,0.5-4.4,1.4C4.7,9.5,1,16.5,1,24
c0,12.7,10.3,23,23,23c10.2,0,19.3-6.9,22.1-16.8C46.5,28.9,49.1,17.4,40.4,13.1z M7,24c0-1.7,1.3-3,3-3s3,1.3,3,3s-1.3,3-3,3
S7,25.7,7,24z M15,37c-1.7,0-3-1.3-3-3s1.3-3,3-3s3,1.3,3,3S16.7,37,15,37z M26,41c-1.7,0-3-1.3-3-3s1.3-3,3-3s3,1.3,3,3
S27.7,41,26,41z M34,29c-2.8,0-5-2.2-5-5s2.2-5,5-5s5,2.2,5,5S36.8,29,34,29z"/>
</g></svg>