<svg xmlns="http://www.w3.org/2000/svg" xmlns:xlink="http://www.w3.org/1999/xlink" x="0px" y="0px" width="48px" height="48px" viewBox="0 0 48 48"><g >
<path data-color="color-2" fill="#4a4a4a" d="M44,1H10C9.448,1,9,1.448,9,2v2h33v39h2c0.552,0,1-0.448,1-1V2C45,1.448,44.552,1,44,1z"/>
<path fill="#4a4a4a" d="M39,6H6C5.448,6,5,6.448,5,7v39c0,0.552,0.448,1,1,1h33c0.552,0,1-0.448,1-1V7C40,6.448,39.552,6,39,6z
 M22,36h-9c-0.552,0-1-0.448-1-1s0.448-1,1-1h9c0.552,0,1,0.448,1,1S22.552,36,22,36z M31,27H13c-0.552,0-1-0.448-1-1s0.448-1,1-1
h18c0.552,0,1,0.448,1,1S31.552,27,31,27z M32,18H13c-0.552,0-1-0.448-1-1s0.448-1,1-1h19c0.552,0,1,0.448,1,1S32.552,18,32,18z"/>
</g></svg>