<svg xmlns="http://www.w3.org/2000/svg" xmlns:xlink="http://www.w3.org/1999/xlink" x="0px" y="0px" width="48px" height="48px" viewBox="0 0 48 48"><g >
<path fill="#4a4a4a" d="M44,19H4c-0.552,0-1,0.447-1,1v26c0,0.553,0.448,1,1,1h40c0.552,0,1-0.447,1-1V20C45,19.447,44.552,19,44,19
z M32,36h-7v4c0,0.553-0.448,1-1,1s-1-0.447-1-1v-4h-7c-0.552,0-1-0.447-1-1s0.448-1,1-1h16c0.552,0,1,0.447,1,1S32.552,36,32,36z
 M32,29H16c-0.552,0-1-0.447-1-1s0.448-1,1-1h16c0.552,0,1,0.447,1,1S32.552,29,32,29z"/>
<path data-color="color-2" fill="#4a4a4a" d="M42.487,1.817c-0.049-0.264-0.202-0.497-0.424-0.646c-0.223-0.15-0.498-0.205-0.759-0.15
l-5.239,1.07l-4.193,8.857l10.897-2.224c0.534-0.108,0.882-0.626,0.783-1.162L42.487,1.817z"/>
<polygon data-color="color-2" fill="#4a4a4a" points="12.275,14.947 19.623,13.447 23.816,4.59 16.468,6.09 "/>
<polygon data-color="color-2" fill="#4a4a4a" points="33.614,2.59 26.266,4.09 22.073,12.947 29.421,11.447 "/>
<path data-color="color-2" fill="#4a4a4a" d="M14.018,6.59L2.697,8.901c-0.541,0.11-0.89,0.639-0.78,1.18l1.168,5.722
c0.097,0.474,0.514,0.8,0.979,0.8c0.066,0,0.133-0.007,0.201-0.021l5.56-1.135L14.018,6.59z"/>
</g></svg>