<svg xmlns="http://www.w3.org/2000/svg" xmlns:xlink="http://www.w3.org/1999/xlink" x="0px" y="0px" width="48px" height="48px" viewBox="0 0 48 48"><g >
<path fill="#4a4a4a" d="M44.7,3.3C44.5,3.1,44.2,3,43.8,3c-0.9,0.1-21.9,3.7-30.5,12.3c-6.7,6.7-6.2,14.1-5,18.5l9.8-6.7
c0.5-0.3,1.1,0.3,0.6,0.8L3.3,43.3c-0.4,0.4-0.4,1,0,1.4C3.5,44.9,3.7,45,4,45s0.5-0.1,0.7-0.3l6.2-6.2c1.3,0.6,4.5,1.9,8.6,1.9
c5,0,9.5-1.9,13.3-5.7c0.3-0.3,0.4-0.7,0.2-1.1l-3-7.6l5.9,2.9c0.5,0.2,1.1,0,1.3-0.4c4.8-9.4,7.8-23.7,7.9-24.3
C45,3.9,44.9,3.5,44.7,3.3z"/>
</g></svg>